<mxfile host="app.diagrams.net" modified="2020-09-13T08:46:04.846Z" agent="5.0 (Macintosh; Intel Mac OS X 10_15_6) AppleWebKit/537.36 (KHTML, like Gecko) Chrome/85.0.4183.83 Safari/537.36" etag="EgAgkrRM6ziizskZUBv5" version="13.6.10" type="github">
  <diagram id="fgaytZXY9sbRwprB51xg" name="Page-1">
    <mxGraphModel dx="1433" dy="739" grid="1" gridSize="10" guides="0" tooltips="1" connect="1" arrows="1" fold="1" page="1" pageScale="1" pageWidth="827" pageHeight="1169" math="0" shadow="0">
      <root>
        <mxCell id="0" />
        <mxCell id="1" parent="0" />
        <mxCell id="fjLqXx-3xqpTFQaSFBJo-81" value="注文" style="shape=table;startSize=30;container=1;collapsible=1;childLayout=tableLayout;fixedRows=1;rowLines=0;fontStyle=1;align=center;resizeLast=1;" vertex="1" parent="1">
          <mxGeometry x="520" y="40" width="230" height="340" as="geometry" />
        </mxCell>
        <mxCell id="fjLqXx-3xqpTFQaSFBJo-82" value="" style="shape=partialRectangle;collapsible=0;dropTarget=0;pointerEvents=0;fillColor=none;top=0;left=0;bottom=1;right=0;points=[[0,0.5],[1,0.5]];portConstraint=eastwest;" vertex="1" parent="fjLqXx-3xqpTFQaSFBJo-81">
          <mxGeometry y="30" width="230" height="30" as="geometry" />
        </mxCell>
        <mxCell id="fjLqXx-3xqpTFQaSFBJo-83" value="PK" style="shape=partialRectangle;connectable=0;fillColor=none;top=0;left=0;bottom=0;right=0;fontStyle=1;overflow=hidden;" vertex="1" parent="fjLqXx-3xqpTFQaSFBJo-82">
          <mxGeometry width="30" height="30" as="geometry" />
        </mxCell>
        <mxCell id="fjLqXx-3xqpTFQaSFBJo-84" value="注文id" style="shape=partialRectangle;connectable=0;fillColor=none;top=0;left=0;bottom=0;right=0;align=left;spacingLeft=6;fontStyle=5;overflow=hidden;" vertex="1" parent="fjLqXx-3xqpTFQaSFBJo-82">
          <mxGeometry x="30" width="200" height="30" as="geometry" />
        </mxCell>
        <mxCell id="fjLqXx-3xqpTFQaSFBJo-305" style="shape=partialRectangle;collapsible=0;dropTarget=0;pointerEvents=0;fillColor=none;top=0;left=0;bottom=1;right=0;points=[[0,0.5],[1,0.5]];portConstraint=eastwest;" vertex="1" parent="fjLqXx-3xqpTFQaSFBJo-81">
          <mxGeometry y="60" width="230" height="30" as="geometry" />
        </mxCell>
        <mxCell id="fjLqXx-3xqpTFQaSFBJo-306" value="FK" style="shape=partialRectangle;connectable=0;fillColor=none;top=0;left=0;bottom=0;right=0;fontStyle=1;overflow=hidden;" vertex="1" parent="fjLqXx-3xqpTFQaSFBJo-305">
          <mxGeometry width="30" height="30" as="geometry" />
        </mxCell>
        <mxCell id="fjLqXx-3xqpTFQaSFBJo-307" value="会員id" style="shape=partialRectangle;connectable=0;fillColor=none;top=0;left=0;bottom=0;right=0;align=left;spacingLeft=6;fontStyle=5;overflow=hidden;" vertex="1" parent="fjLqXx-3xqpTFQaSFBJo-305">
          <mxGeometry x="30" width="200" height="30" as="geometry" />
        </mxCell>
        <mxCell id="fjLqXx-3xqpTFQaSFBJo-85" value="" style="shape=partialRectangle;collapsible=0;dropTarget=0;pointerEvents=0;fillColor=none;top=0;left=0;bottom=0;right=0;points=[[0,0.5],[1,0.5]];portConstraint=eastwest;" vertex="1" parent="fjLqXx-3xqpTFQaSFBJo-81">
          <mxGeometry y="90" width="230" height="30" as="geometry" />
        </mxCell>
        <mxCell id="fjLqXx-3xqpTFQaSFBJo-86" value="" style="shape=partialRectangle;connectable=0;fillColor=none;top=0;left=0;bottom=0;right=0;editable=1;overflow=hidden;" vertex="1" parent="fjLqXx-3xqpTFQaSFBJo-85">
          <mxGeometry width="30" height="30" as="geometry" />
        </mxCell>
        <mxCell id="fjLqXx-3xqpTFQaSFBJo-87" value="注文日" style="shape=partialRectangle;connectable=0;fillColor=none;top=0;left=0;bottom=0;right=0;align=left;spacingLeft=6;overflow=hidden;" vertex="1" parent="fjLqXx-3xqpTFQaSFBJo-85">
          <mxGeometry x="30" width="200" height="30" as="geometry" />
        </mxCell>
        <mxCell id="fjLqXx-3xqpTFQaSFBJo-91" value="" style="shape=partialRectangle;collapsible=0;dropTarget=0;pointerEvents=0;fillColor=none;top=0;left=0;bottom=0;right=0;points=[[0,0.5],[1,0.5]];portConstraint=eastwest;" vertex="1" parent="fjLqXx-3xqpTFQaSFBJo-81">
          <mxGeometry y="120" width="230" height="30" as="geometry" />
        </mxCell>
        <mxCell id="fjLqXx-3xqpTFQaSFBJo-92" value="" style="shape=partialRectangle;connectable=0;fillColor=none;top=0;left=0;bottom=0;right=0;editable=1;overflow=hidden;" vertex="1" parent="fjLqXx-3xqpTFQaSFBJo-91">
          <mxGeometry width="30" height="30" as="geometry" />
        </mxCell>
        <mxCell id="fjLqXx-3xqpTFQaSFBJo-93" value="送料" style="shape=partialRectangle;connectable=0;fillColor=none;top=0;left=0;bottom=0;right=0;align=left;spacingLeft=6;overflow=hidden;" vertex="1" parent="fjLqXx-3xqpTFQaSFBJo-91">
          <mxGeometry x="30" width="200" height="30" as="geometry" />
        </mxCell>
        <mxCell id="fjLqXx-3xqpTFQaSFBJo-392" style="shape=partialRectangle;collapsible=0;dropTarget=0;pointerEvents=0;fillColor=none;top=0;left=0;bottom=0;right=0;points=[[0,0.5],[1,0.5]];portConstraint=eastwest;" vertex="1" parent="fjLqXx-3xqpTFQaSFBJo-81">
          <mxGeometry y="150" width="230" height="30" as="geometry" />
        </mxCell>
        <mxCell id="fjLqXx-3xqpTFQaSFBJo-393" style="shape=partialRectangle;connectable=0;fillColor=none;top=0;left=0;bottom=0;right=0;editable=1;overflow=hidden;" vertex="1" parent="fjLqXx-3xqpTFQaSFBJo-392">
          <mxGeometry width="30" height="30" as="geometry" />
        </mxCell>
        <mxCell id="fjLqXx-3xqpTFQaSFBJo-394" value="郵便番号" style="shape=partialRectangle;connectable=0;fillColor=none;top=0;left=0;bottom=0;right=0;align=left;spacingLeft=6;overflow=hidden;" vertex="1" parent="fjLqXx-3xqpTFQaSFBJo-392">
          <mxGeometry x="30" width="200" height="30" as="geometry" />
        </mxCell>
        <mxCell id="fjLqXx-3xqpTFQaSFBJo-389" style="shape=partialRectangle;collapsible=0;dropTarget=0;pointerEvents=0;fillColor=none;top=0;left=0;bottom=0;right=0;points=[[0,0.5],[1,0.5]];portConstraint=eastwest;" vertex="1" parent="fjLqXx-3xqpTFQaSFBJo-81">
          <mxGeometry y="180" width="230" height="30" as="geometry" />
        </mxCell>
        <mxCell id="fjLqXx-3xqpTFQaSFBJo-390" style="shape=partialRectangle;connectable=0;fillColor=none;top=0;left=0;bottom=0;right=0;editable=1;overflow=hidden;" vertex="1" parent="fjLqXx-3xqpTFQaSFBJo-389">
          <mxGeometry width="30" height="30" as="geometry" />
        </mxCell>
        <mxCell id="fjLqXx-3xqpTFQaSFBJo-391" value="配送先住所" style="shape=partialRectangle;connectable=0;fillColor=none;top=0;left=0;bottom=0;right=0;align=left;spacingLeft=6;overflow=hidden;" vertex="1" parent="fjLqXx-3xqpTFQaSFBJo-389">
          <mxGeometry x="30" width="200" height="30" as="geometry" />
        </mxCell>
        <mxCell id="fjLqXx-3xqpTFQaSFBJo-398" style="shape=partialRectangle;collapsible=0;dropTarget=0;pointerEvents=0;fillColor=none;top=0;left=0;bottom=0;right=0;points=[[0,0.5],[1,0.5]];portConstraint=eastwest;" vertex="1" parent="fjLqXx-3xqpTFQaSFBJo-81">
          <mxGeometry y="210" width="230" height="30" as="geometry" />
        </mxCell>
        <mxCell id="fjLqXx-3xqpTFQaSFBJo-399" style="shape=partialRectangle;connectable=0;fillColor=none;top=0;left=0;bottom=0;right=0;editable=1;overflow=hidden;" vertex="1" parent="fjLqXx-3xqpTFQaSFBJo-398">
          <mxGeometry width="30" height="30" as="geometry" />
        </mxCell>
        <mxCell id="fjLqXx-3xqpTFQaSFBJo-400" value="支払い方法" style="shape=partialRectangle;connectable=0;fillColor=none;top=0;left=0;bottom=0;right=0;align=left;spacingLeft=6;overflow=hidden;" vertex="1" parent="fjLqXx-3xqpTFQaSFBJo-398">
          <mxGeometry x="30" width="200" height="30" as="geometry" />
        </mxCell>
        <mxCell id="fjLqXx-3xqpTFQaSFBJo-177" style="shape=partialRectangle;collapsible=0;dropTarget=0;pointerEvents=0;fillColor=none;top=0;left=0;bottom=0;right=0;points=[[0,0.5],[1,0.5]];portConstraint=eastwest;" vertex="1" parent="fjLqXx-3xqpTFQaSFBJo-81">
          <mxGeometry y="240" width="230" height="30" as="geometry" />
        </mxCell>
        <mxCell id="fjLqXx-3xqpTFQaSFBJo-178" style="shape=partialRectangle;connectable=0;fillColor=none;top=0;left=0;bottom=0;right=0;editable=1;overflow=hidden;" vertex="1" parent="fjLqXx-3xqpTFQaSFBJo-177">
          <mxGeometry width="30" height="30" as="geometry" />
        </mxCell>
        <mxCell id="fjLqXx-3xqpTFQaSFBJo-179" value="注文ステータス" style="shape=partialRectangle;connectable=0;fillColor=none;top=0;left=0;bottom=0;right=0;align=left;spacingLeft=6;overflow=hidden;" vertex="1" parent="fjLqXx-3xqpTFQaSFBJo-177">
          <mxGeometry x="30" width="200" height="30" as="geometry" />
        </mxCell>
        <mxCell id="fjLqXx-3xqpTFQaSFBJo-302" style="shape=partialRectangle;collapsible=0;dropTarget=0;pointerEvents=0;fillColor=none;top=0;left=0;bottom=0;right=0;points=[[0,0.5],[1,0.5]];portConstraint=eastwest;" vertex="1" parent="fjLqXx-3xqpTFQaSFBJo-81">
          <mxGeometry y="270" width="230" height="30" as="geometry" />
        </mxCell>
        <mxCell id="fjLqXx-3xqpTFQaSFBJo-303" style="shape=partialRectangle;connectable=0;fillColor=none;top=0;left=0;bottom=0;right=0;editable=1;overflow=hidden;" vertex="1" parent="fjLqXx-3xqpTFQaSFBJo-302">
          <mxGeometry width="30" height="30" as="geometry" />
        </mxCell>
        <mxCell id="fjLqXx-3xqpTFQaSFBJo-304" value="登録日" style="shape=partialRectangle;connectable=0;fillColor=none;top=0;left=0;bottom=0;right=0;align=left;spacingLeft=6;overflow=hidden;" vertex="1" parent="fjLqXx-3xqpTFQaSFBJo-302">
          <mxGeometry x="30" width="200" height="30" as="geometry" />
        </mxCell>
        <mxCell id="fjLqXx-3xqpTFQaSFBJo-311" style="shape=partialRectangle;collapsible=0;dropTarget=0;pointerEvents=0;fillColor=none;top=0;left=0;bottom=0;right=0;points=[[0,0.5],[1,0.5]];portConstraint=eastwest;" vertex="1" parent="fjLqXx-3xqpTFQaSFBJo-81">
          <mxGeometry y="300" width="230" height="30" as="geometry" />
        </mxCell>
        <mxCell id="fjLqXx-3xqpTFQaSFBJo-312" style="shape=partialRectangle;connectable=0;fillColor=none;top=0;left=0;bottom=0;right=0;editable=1;overflow=hidden;" vertex="1" parent="fjLqXx-3xqpTFQaSFBJo-311">
          <mxGeometry width="30" height="30" as="geometry" />
        </mxCell>
        <mxCell id="fjLqXx-3xqpTFQaSFBJo-313" value="更新日" style="shape=partialRectangle;connectable=0;fillColor=none;top=0;left=0;bottom=0;right=0;align=left;spacingLeft=6;overflow=hidden;" vertex="1" parent="fjLqXx-3xqpTFQaSFBJo-311">
          <mxGeometry x="30" width="200" height="30" as="geometry" />
        </mxCell>
        <mxCell id="fjLqXx-3xqpTFQaSFBJo-240" style="edgeStyle=orthogonalEdgeStyle;rounded=0;orthogonalLoop=1;jettySize=auto;html=1;exitX=1;exitY=0.5;exitDx=0;exitDy=0;entryX=0;entryY=0.5;entryDx=0;entryDy=0;startArrow=none;startFill=0;endArrow=ERmany;endFill=0;" edge="1" parent="1" target="fjLqXx-3xqpTFQaSFBJo-85">
          <mxGeometry relative="1" as="geometry">
            <mxPoint x="460" y="115" as="sourcePoint" />
          </mxGeometry>
        </mxCell>
        <mxCell id="fjLqXx-3xqpTFQaSFBJo-247" style="edgeStyle=orthogonalEdgeStyle;rounded=0;orthogonalLoop=1;jettySize=auto;html=1;exitX=1;exitY=0.5;exitDx=0;exitDy=0;entryX=0;entryY=0.5;entryDx=0;entryDy=0;startArrow=none;startFill=0;endArrow=ERmany;endFill=0;" edge="1" parent="1" source="fjLqXx-3xqpTFQaSFBJo-85" target="fjLqXx-3xqpTFQaSFBJo-33">
          <mxGeometry relative="1" as="geometry" />
        </mxCell>
        <mxCell id="fjLqXx-3xqpTFQaSFBJo-1" value="会員" style="shape=table;startSize=30;container=1;collapsible=1;childLayout=tableLayout;fixedRows=1;rowLines=0;fontStyle=1;align=center;resizeLast=1;" vertex="1" parent="1">
          <mxGeometry x="280" y="40" width="180" height="360" as="geometry" />
        </mxCell>
        <mxCell id="fjLqXx-3xqpTFQaSFBJo-2" value="" style="shape=partialRectangle;collapsible=0;dropTarget=0;pointerEvents=0;fillColor=none;top=0;left=0;bottom=1;right=0;points=[[0,0.5],[1,0.5]];portConstraint=eastwest;" vertex="1" parent="fjLqXx-3xqpTFQaSFBJo-1">
          <mxGeometry y="30" width="180" height="30" as="geometry" />
        </mxCell>
        <mxCell id="fjLqXx-3xqpTFQaSFBJo-3" value="PK" style="shape=partialRectangle;connectable=0;fillColor=none;top=0;left=0;bottom=0;right=0;fontStyle=1;overflow=hidden;" vertex="1" parent="fjLqXx-3xqpTFQaSFBJo-2">
          <mxGeometry width="30" height="30" as="geometry" />
        </mxCell>
        <mxCell id="fjLqXx-3xqpTFQaSFBJo-4" value="会員id" style="shape=partialRectangle;connectable=0;fillColor=none;top=0;left=0;bottom=0;right=0;align=left;spacingLeft=6;fontStyle=5;overflow=hidden;" vertex="1" parent="fjLqXx-3xqpTFQaSFBJo-2">
          <mxGeometry x="30" width="150" height="30" as="geometry" />
        </mxCell>
        <mxCell id="fjLqXx-3xqpTFQaSFBJo-5" value="" style="shape=partialRectangle;collapsible=0;dropTarget=0;pointerEvents=0;fillColor=none;top=0;left=0;bottom=0;right=0;points=[[0,0.5],[1,0.5]];portConstraint=eastwest;" vertex="1" parent="fjLqXx-3xqpTFQaSFBJo-1">
          <mxGeometry y="60" width="180" height="30" as="geometry" />
        </mxCell>
        <mxCell id="fjLqXx-3xqpTFQaSFBJo-6" value="" style="shape=partialRectangle;connectable=0;fillColor=none;top=0;left=0;bottom=0;right=0;editable=1;overflow=hidden;" vertex="1" parent="fjLqXx-3xqpTFQaSFBJo-5">
          <mxGeometry width="30" height="30" as="geometry" />
        </mxCell>
        <mxCell id="fjLqXx-3xqpTFQaSFBJo-7" value="名前（性・名）" style="shape=partialRectangle;connectable=0;fillColor=none;top=0;left=0;bottom=0;right=0;align=left;spacingLeft=6;overflow=hidden;" vertex="1" parent="fjLqXx-3xqpTFQaSFBJo-5">
          <mxGeometry x="30" width="150" height="30" as="geometry" />
        </mxCell>
        <mxCell id="fjLqXx-3xqpTFQaSFBJo-8" value="" style="shape=partialRectangle;collapsible=0;dropTarget=0;pointerEvents=0;fillColor=none;top=0;left=0;bottom=0;right=0;points=[[0,0.5],[1,0.5]];portConstraint=eastwest;" vertex="1" parent="fjLqXx-3xqpTFQaSFBJo-1">
          <mxGeometry y="90" width="180" height="30" as="geometry" />
        </mxCell>
        <mxCell id="fjLqXx-3xqpTFQaSFBJo-9" value="" style="shape=partialRectangle;connectable=0;fillColor=none;top=0;left=0;bottom=0;right=0;editable=1;overflow=hidden;" vertex="1" parent="fjLqXx-3xqpTFQaSFBJo-8">
          <mxGeometry width="30" height="30" as="geometry" />
        </mxCell>
        <mxCell id="fjLqXx-3xqpTFQaSFBJo-10" value="名前（カナ性・カナ名）" style="shape=partialRectangle;connectable=0;fillColor=none;top=0;left=0;bottom=0;right=0;align=left;spacingLeft=6;overflow=hidden;" vertex="1" parent="fjLqXx-3xqpTFQaSFBJo-8">
          <mxGeometry x="30" width="150" height="30" as="geometry" />
        </mxCell>
        <mxCell id="fjLqXx-3xqpTFQaSFBJo-11" value="" style="shape=partialRectangle;collapsible=0;dropTarget=0;pointerEvents=0;fillColor=none;top=0;left=0;bottom=0;right=0;points=[[0,0.5],[1,0.5]];portConstraint=eastwest;" vertex="1" parent="fjLqXx-3xqpTFQaSFBJo-1">
          <mxGeometry y="120" width="180" height="30" as="geometry" />
        </mxCell>
        <mxCell id="fjLqXx-3xqpTFQaSFBJo-12" value="" style="shape=partialRectangle;connectable=0;fillColor=none;top=0;left=0;bottom=0;right=0;editable=1;overflow=hidden;" vertex="1" parent="fjLqXx-3xqpTFQaSFBJo-11">
          <mxGeometry width="30" height="30" as="geometry" />
        </mxCell>
        <mxCell id="fjLqXx-3xqpTFQaSFBJo-13" value="郵便番号" style="shape=partialRectangle;connectable=0;fillColor=none;top=0;left=0;bottom=0;right=0;align=left;spacingLeft=6;overflow=hidden;" vertex="1" parent="fjLqXx-3xqpTFQaSFBJo-11">
          <mxGeometry x="30" width="150" height="30" as="geometry" />
        </mxCell>
        <mxCell id="fjLqXx-3xqpTFQaSFBJo-150" style="shape=partialRectangle;collapsible=0;dropTarget=0;pointerEvents=0;fillColor=none;top=0;left=0;bottom=0;right=0;points=[[0,0.5],[1,0.5]];portConstraint=eastwest;" vertex="1" parent="fjLqXx-3xqpTFQaSFBJo-1">
          <mxGeometry y="150" width="180" height="30" as="geometry" />
        </mxCell>
        <mxCell id="fjLqXx-3xqpTFQaSFBJo-151" style="shape=partialRectangle;connectable=0;fillColor=none;top=0;left=0;bottom=0;right=0;editable=1;overflow=hidden;" vertex="1" parent="fjLqXx-3xqpTFQaSFBJo-150">
          <mxGeometry width="30" height="30" as="geometry" />
        </mxCell>
        <mxCell id="fjLqXx-3xqpTFQaSFBJo-152" value="住所" style="shape=partialRectangle;connectable=0;fillColor=none;top=0;left=0;bottom=0;right=0;align=left;spacingLeft=6;overflow=hidden;" vertex="1" parent="fjLqXx-3xqpTFQaSFBJo-150">
          <mxGeometry x="30" width="150" height="30" as="geometry" />
        </mxCell>
        <mxCell id="fjLqXx-3xqpTFQaSFBJo-153" style="shape=partialRectangle;collapsible=0;dropTarget=0;pointerEvents=0;fillColor=none;top=0;left=0;bottom=0;right=0;points=[[0,0.5],[1,0.5]];portConstraint=eastwest;" vertex="1" parent="fjLqXx-3xqpTFQaSFBJo-1">
          <mxGeometry y="180" width="180" height="30" as="geometry" />
        </mxCell>
        <mxCell id="fjLqXx-3xqpTFQaSFBJo-154" style="shape=partialRectangle;connectable=0;fillColor=none;top=0;left=0;bottom=0;right=0;editable=1;overflow=hidden;" vertex="1" parent="fjLqXx-3xqpTFQaSFBJo-153">
          <mxGeometry width="30" height="30" as="geometry" />
        </mxCell>
        <mxCell id="fjLqXx-3xqpTFQaSFBJo-155" value="電話番号" style="shape=partialRectangle;connectable=0;fillColor=none;top=0;left=0;bottom=0;right=0;align=left;spacingLeft=6;overflow=hidden;" vertex="1" parent="fjLqXx-3xqpTFQaSFBJo-153">
          <mxGeometry x="30" width="150" height="30" as="geometry" />
        </mxCell>
        <mxCell id="fjLqXx-3xqpTFQaSFBJo-156" style="shape=partialRectangle;collapsible=0;dropTarget=0;pointerEvents=0;fillColor=none;top=0;left=0;bottom=0;right=0;points=[[0,0.5],[1,0.5]];portConstraint=eastwest;" vertex="1" parent="fjLqXx-3xqpTFQaSFBJo-1">
          <mxGeometry y="210" width="180" height="30" as="geometry" />
        </mxCell>
        <mxCell id="fjLqXx-3xqpTFQaSFBJo-157" style="shape=partialRectangle;connectable=0;fillColor=none;top=0;left=0;bottom=0;right=0;editable=1;overflow=hidden;" vertex="1" parent="fjLqXx-3xqpTFQaSFBJo-156">
          <mxGeometry width="30" height="30" as="geometry" />
        </mxCell>
        <mxCell id="fjLqXx-3xqpTFQaSFBJo-158" value="メールアドレス" style="shape=partialRectangle;connectable=0;fillColor=none;top=0;left=0;bottom=0;right=0;align=left;spacingLeft=6;overflow=hidden;" vertex="1" parent="fjLqXx-3xqpTFQaSFBJo-156">
          <mxGeometry x="30" width="150" height="30" as="geometry" />
        </mxCell>
        <mxCell id="fjLqXx-3xqpTFQaSFBJo-159" style="shape=partialRectangle;collapsible=0;dropTarget=0;pointerEvents=0;fillColor=none;top=0;left=0;bottom=0;right=0;points=[[0,0.5],[1,0.5]];portConstraint=eastwest;" vertex="1" parent="fjLqXx-3xqpTFQaSFBJo-1">
          <mxGeometry y="240" width="180" height="30" as="geometry" />
        </mxCell>
        <mxCell id="fjLqXx-3xqpTFQaSFBJo-160" style="shape=partialRectangle;connectable=0;fillColor=none;top=0;left=0;bottom=0;right=0;editable=1;overflow=hidden;" vertex="1" parent="fjLqXx-3xqpTFQaSFBJo-159">
          <mxGeometry width="30" height="30" as="geometry" />
        </mxCell>
        <mxCell id="fjLqXx-3xqpTFQaSFBJo-161" value="パスワード" style="shape=partialRectangle;connectable=0;fillColor=none;top=0;left=0;bottom=0;right=0;align=left;spacingLeft=6;overflow=hidden;" vertex="1" parent="fjLqXx-3xqpTFQaSFBJo-159">
          <mxGeometry x="30" width="150" height="30" as="geometry" />
        </mxCell>
        <mxCell id="fjLqXx-3xqpTFQaSFBJo-211" style="shape=partialRectangle;collapsible=0;dropTarget=0;pointerEvents=0;fillColor=none;top=0;left=0;bottom=0;right=0;points=[[0,0.5],[1,0.5]];portConstraint=eastwest;" vertex="1" parent="fjLqXx-3xqpTFQaSFBJo-1">
          <mxGeometry y="270" width="180" height="30" as="geometry" />
        </mxCell>
        <mxCell id="fjLqXx-3xqpTFQaSFBJo-212" style="shape=partialRectangle;connectable=0;fillColor=none;top=0;left=0;bottom=0;right=0;editable=1;overflow=hidden;" vertex="1" parent="fjLqXx-3xqpTFQaSFBJo-211">
          <mxGeometry width="30" height="30" as="geometry" />
        </mxCell>
        <mxCell id="fjLqXx-3xqpTFQaSFBJo-213" value="会員ステータス" style="shape=partialRectangle;connectable=0;fillColor=none;top=0;left=0;bottom=0;right=0;align=left;spacingLeft=6;overflow=hidden;" vertex="1" parent="fjLqXx-3xqpTFQaSFBJo-211">
          <mxGeometry x="30" width="150" height="30" as="geometry" />
        </mxCell>
        <mxCell id="fjLqXx-3xqpTFQaSFBJo-317" style="shape=partialRectangle;collapsible=0;dropTarget=0;pointerEvents=0;fillColor=none;top=0;left=0;bottom=0;right=0;points=[[0,0.5],[1,0.5]];portConstraint=eastwest;" vertex="1" parent="fjLqXx-3xqpTFQaSFBJo-1">
          <mxGeometry y="300" width="180" height="30" as="geometry" />
        </mxCell>
        <mxCell id="fjLqXx-3xqpTFQaSFBJo-318" style="shape=partialRectangle;connectable=0;fillColor=none;top=0;left=0;bottom=0;right=0;editable=1;overflow=hidden;" vertex="1" parent="fjLqXx-3xqpTFQaSFBJo-317">
          <mxGeometry width="30" height="30" as="geometry" />
        </mxCell>
        <mxCell id="fjLqXx-3xqpTFQaSFBJo-319" value="登録日" style="shape=partialRectangle;connectable=0;fillColor=none;top=0;left=0;bottom=0;right=0;align=left;spacingLeft=6;overflow=hidden;" vertex="1" parent="fjLqXx-3xqpTFQaSFBJo-317">
          <mxGeometry x="30" width="150" height="30" as="geometry" />
        </mxCell>
        <mxCell id="fjLqXx-3xqpTFQaSFBJo-314" style="shape=partialRectangle;collapsible=0;dropTarget=0;pointerEvents=0;fillColor=none;top=0;left=0;bottom=0;right=0;points=[[0,0.5],[1,0.5]];portConstraint=eastwest;" vertex="1" parent="fjLqXx-3xqpTFQaSFBJo-1">
          <mxGeometry y="330" width="180" height="30" as="geometry" />
        </mxCell>
        <mxCell id="fjLqXx-3xqpTFQaSFBJo-315" style="shape=partialRectangle;connectable=0;fillColor=none;top=0;left=0;bottom=0;right=0;editable=1;overflow=hidden;" vertex="1" parent="fjLqXx-3xqpTFQaSFBJo-314">
          <mxGeometry width="30" height="30" as="geometry" />
        </mxCell>
        <mxCell id="fjLqXx-3xqpTFQaSFBJo-316" value="更新日" style="shape=partialRectangle;connectable=0;fillColor=none;top=0;left=0;bottom=0;right=0;align=left;spacingLeft=6;overflow=hidden;" vertex="1" parent="fjLqXx-3xqpTFQaSFBJo-314">
          <mxGeometry x="30" width="150" height="30" as="geometry" />
        </mxCell>
        <mxCell id="fjLqXx-3xqpTFQaSFBJo-348" value="" style="endArrow=ERmany;html=1;exitX=0;exitY=0.5;exitDx=0;exitDy=0;endFill=0;entryX=1;entryY=0.5;entryDx=0;entryDy=0;" edge="1" parent="1" source="fjLqXx-3xqpTFQaSFBJo-259" target="fjLqXx-3xqpTFQaSFBJo-18">
          <mxGeometry width="50" height="50" relative="1" as="geometry">
            <mxPoint x="800" y="890" as="sourcePoint" />
            <mxPoint x="952" y="780" as="targetPoint" />
          </mxGeometry>
        </mxCell>
        <mxCell id="fjLqXx-3xqpTFQaSFBJo-359" style="edgeStyle=orthogonalEdgeStyle;curved=0;rounded=1;sketch=0;orthogonalLoop=1;jettySize=auto;html=1;exitX=0.5;exitY=0;exitDx=0;exitDy=0;endArrow=ERmany;endFill=0;" edge="1" parent="1" source="fjLqXx-3xqpTFQaSFBJo-14">
          <mxGeometry relative="1" as="geometry">
            <mxPoint x="940" y="320" as="targetPoint" />
          </mxGeometry>
        </mxCell>
        <mxCell id="fjLqXx-3xqpTFQaSFBJo-29" value="注文明細" style="shape=table;startSize=30;container=1;collapsible=1;childLayout=tableLayout;fixedRows=1;rowLines=0;fontStyle=1;align=center;resizeLast=1;" vertex="1" parent="1">
          <mxGeometry x="860" y="40" width="310" height="280" as="geometry" />
        </mxCell>
        <mxCell id="fjLqXx-3xqpTFQaSFBJo-30" value="" style="shape=partialRectangle;collapsible=0;dropTarget=0;pointerEvents=0;fillColor=none;top=0;left=0;bottom=1;right=0;points=[[0,0.5],[1,0.5]];portConstraint=eastwest;" vertex="1" parent="fjLqXx-3xqpTFQaSFBJo-29">
          <mxGeometry y="30" width="310" height="30" as="geometry" />
        </mxCell>
        <mxCell id="fjLqXx-3xqpTFQaSFBJo-31" value="PK" style="shape=partialRectangle;connectable=0;fillColor=none;top=0;left=0;bottom=0;right=0;fontStyle=1;overflow=hidden;" vertex="1" parent="fjLqXx-3xqpTFQaSFBJo-30">
          <mxGeometry width="30" height="30" as="geometry" />
        </mxCell>
        <mxCell id="fjLqXx-3xqpTFQaSFBJo-32" value="注文明細id" style="shape=partialRectangle;connectable=0;fillColor=none;top=0;left=0;bottom=0;right=0;align=left;spacingLeft=6;fontStyle=5;overflow=hidden;" vertex="1" parent="fjLqXx-3xqpTFQaSFBJo-30">
          <mxGeometry x="30" width="280" height="30" as="geometry" />
        </mxCell>
        <mxCell id="fjLqXx-3xqpTFQaSFBJo-293" style="shape=partialRectangle;collapsible=0;dropTarget=0;pointerEvents=0;fillColor=none;top=0;left=0;bottom=1;right=0;points=[[0,0.5],[1,0.5]];portConstraint=eastwest;" vertex="1" parent="fjLqXx-3xqpTFQaSFBJo-29">
          <mxGeometry y="60" width="310" height="30" as="geometry" />
        </mxCell>
        <mxCell id="fjLqXx-3xqpTFQaSFBJo-294" value="FK" style="shape=partialRectangle;connectable=0;fillColor=none;top=0;left=0;bottom=0;right=0;fontStyle=1;overflow=hidden;" vertex="1" parent="fjLqXx-3xqpTFQaSFBJo-293">
          <mxGeometry width="30" height="30" as="geometry" />
        </mxCell>
        <mxCell id="fjLqXx-3xqpTFQaSFBJo-295" value="注文id" style="shape=partialRectangle;connectable=0;fillColor=none;top=0;left=0;bottom=0;right=0;align=left;spacingLeft=6;fontStyle=5;overflow=hidden;" vertex="1" parent="fjLqXx-3xqpTFQaSFBJo-293">
          <mxGeometry x="30" width="280" height="30" as="geometry" />
        </mxCell>
        <mxCell id="fjLqXx-3xqpTFQaSFBJo-308" style="shape=partialRectangle;collapsible=0;dropTarget=0;pointerEvents=0;fillColor=none;top=0;left=0;bottom=1;right=0;points=[[0,0.5],[1,0.5]];portConstraint=eastwest;" vertex="1" parent="fjLqXx-3xqpTFQaSFBJo-29">
          <mxGeometry y="90" width="310" height="30" as="geometry" />
        </mxCell>
        <mxCell id="fjLqXx-3xqpTFQaSFBJo-309" value="FK" style="shape=partialRectangle;connectable=0;fillColor=none;top=0;left=0;bottom=0;right=0;fontStyle=1;overflow=hidden;" vertex="1" parent="fjLqXx-3xqpTFQaSFBJo-308">
          <mxGeometry width="30" height="30" as="geometry" />
        </mxCell>
        <mxCell id="fjLqXx-3xqpTFQaSFBJo-310" value="商品id" style="shape=partialRectangle;connectable=0;fillColor=none;top=0;left=0;bottom=0;right=0;align=left;spacingLeft=6;fontStyle=5;overflow=hidden;" vertex="1" parent="fjLqXx-3xqpTFQaSFBJo-308">
          <mxGeometry x="30" width="280" height="30" as="geometry" />
        </mxCell>
        <mxCell id="fjLqXx-3xqpTFQaSFBJo-168" style="shape=partialRectangle;collapsible=0;dropTarget=0;pointerEvents=0;fillColor=none;top=0;left=0;bottom=0;right=0;points=[[0,0.5],[1,0.5]];portConstraint=eastwest;" vertex="1" parent="fjLqXx-3xqpTFQaSFBJo-29">
          <mxGeometry y="120" width="310" height="30" as="geometry" />
        </mxCell>
        <mxCell id="fjLqXx-3xqpTFQaSFBJo-169" style="shape=partialRectangle;connectable=0;fillColor=none;top=0;left=0;bottom=0;right=0;editable=1;overflow=hidden;" vertex="1" parent="fjLqXx-3xqpTFQaSFBJo-168">
          <mxGeometry width="30" height="30" as="geometry" />
        </mxCell>
        <mxCell id="fjLqXx-3xqpTFQaSFBJo-170" value="個数" style="shape=partialRectangle;connectable=0;fillColor=none;top=0;left=0;bottom=0;right=0;align=left;spacingLeft=6;overflow=hidden;" vertex="1" parent="fjLqXx-3xqpTFQaSFBJo-168">
          <mxGeometry x="30" width="280" height="30" as="geometry" />
        </mxCell>
        <mxCell id="fjLqXx-3xqpTFQaSFBJo-395" style="shape=partialRectangle;collapsible=0;dropTarget=0;pointerEvents=0;fillColor=none;top=0;left=0;bottom=0;right=0;points=[[0,0.5],[1,0.5]];portConstraint=eastwest;" vertex="1" parent="fjLqXx-3xqpTFQaSFBJo-29">
          <mxGeometry y="150" width="310" height="30" as="geometry" />
        </mxCell>
        <mxCell id="fjLqXx-3xqpTFQaSFBJo-396" style="shape=partialRectangle;connectable=0;fillColor=none;top=0;left=0;bottom=0;right=0;editable=1;overflow=hidden;" vertex="1" parent="fjLqXx-3xqpTFQaSFBJo-395">
          <mxGeometry width="30" height="30" as="geometry" />
        </mxCell>
        <mxCell id="fjLqXx-3xqpTFQaSFBJo-397" value="税込価格" style="shape=partialRectangle;connectable=0;fillColor=none;top=0;left=0;bottom=0;right=0;align=left;spacingLeft=6;overflow=hidden;" vertex="1" parent="fjLqXx-3xqpTFQaSFBJo-395">
          <mxGeometry x="30" width="280" height="30" as="geometry" />
        </mxCell>
        <mxCell id="fjLqXx-3xqpTFQaSFBJo-401" style="shape=partialRectangle;collapsible=0;dropTarget=0;pointerEvents=0;fillColor=none;top=0;left=0;bottom=0;right=0;points=[[0,0.5],[1,0.5]];portConstraint=eastwest;" vertex="1" parent="fjLqXx-3xqpTFQaSFBJo-29">
          <mxGeometry y="180" width="310" height="30" as="geometry" />
        </mxCell>
        <mxCell id="fjLqXx-3xqpTFQaSFBJo-402" style="shape=partialRectangle;connectable=0;fillColor=none;top=0;left=0;bottom=0;right=0;editable=1;overflow=hidden;" vertex="1" parent="fjLqXx-3xqpTFQaSFBJo-401">
          <mxGeometry width="30" height="30" as="geometry" />
        </mxCell>
        <mxCell id="fjLqXx-3xqpTFQaSFBJo-403" value="製作ステータス" style="shape=partialRectangle;connectable=0;fillColor=none;top=0;left=0;bottom=0;right=0;align=left;spacingLeft=6;overflow=hidden;" vertex="1" parent="fjLqXx-3xqpTFQaSFBJo-401">
          <mxGeometry x="30" width="280" height="30" as="geometry" />
        </mxCell>
        <mxCell id="fjLqXx-3xqpTFQaSFBJo-341" style="shape=partialRectangle;collapsible=0;dropTarget=0;pointerEvents=0;fillColor=none;top=0;left=0;bottom=0;right=0;points=[[0,0.5],[1,0.5]];portConstraint=eastwest;" vertex="1" parent="fjLqXx-3xqpTFQaSFBJo-29">
          <mxGeometry y="210" width="310" height="30" as="geometry" />
        </mxCell>
        <mxCell id="fjLqXx-3xqpTFQaSFBJo-342" style="shape=partialRectangle;connectable=0;fillColor=none;top=0;left=0;bottom=0;right=0;editable=1;overflow=hidden;" vertex="1" parent="fjLqXx-3xqpTFQaSFBJo-341">
          <mxGeometry width="30" height="30" as="geometry" />
        </mxCell>
        <mxCell id="fjLqXx-3xqpTFQaSFBJo-343" value="登録日" style="shape=partialRectangle;connectable=0;fillColor=none;top=0;left=0;bottom=0;right=0;align=left;spacingLeft=6;overflow=hidden;" vertex="1" parent="fjLqXx-3xqpTFQaSFBJo-341">
          <mxGeometry x="30" width="280" height="30" as="geometry" />
        </mxCell>
        <mxCell id="fjLqXx-3xqpTFQaSFBJo-338" style="shape=partialRectangle;collapsible=0;dropTarget=0;pointerEvents=0;fillColor=none;top=0;left=0;bottom=0;right=0;points=[[0,0.5],[1,0.5]];portConstraint=eastwest;" vertex="1" parent="fjLqXx-3xqpTFQaSFBJo-29">
          <mxGeometry y="240" width="310" height="30" as="geometry" />
        </mxCell>
        <mxCell id="fjLqXx-3xqpTFQaSFBJo-339" style="shape=partialRectangle;connectable=0;fillColor=none;top=0;left=0;bottom=0;right=0;editable=1;overflow=hidden;" vertex="1" parent="fjLqXx-3xqpTFQaSFBJo-338">
          <mxGeometry width="30" height="30" as="geometry" />
        </mxCell>
        <mxCell id="fjLqXx-3xqpTFQaSFBJo-340" value="更新日" style="shape=partialRectangle;connectable=0;fillColor=none;top=0;left=0;bottom=0;right=0;align=left;spacingLeft=6;overflow=hidden;" vertex="1" parent="fjLqXx-3xqpTFQaSFBJo-338">
          <mxGeometry x="30" width="280" height="30" as="geometry" />
        </mxCell>
        <mxCell id="fjLqXx-3xqpTFQaSFBJo-367" style="edgeStyle=orthogonalEdgeStyle;curved=0;rounded=1;sketch=0;orthogonalLoop=1;jettySize=auto;html=1;endArrow=ERmany;endFill=0;entryX=0;entryY=0.176;entryDx=0;entryDy=0;entryPerimeter=0;" edge="1" parent="1" target="fjLqXx-3xqpTFQaSFBJo-341">
          <mxGeometry relative="1" as="geometry">
            <mxPoint x="750" y="195" as="sourcePoint" />
          </mxGeometry>
        </mxCell>
        <mxCell id="fjLqXx-3xqpTFQaSFBJo-371" value="管理者" style="shape=table;startSize=30;container=1;collapsible=1;childLayout=tableLayout;fixedRows=1;rowLines=0;fontStyle=1;align=center;resizeLast=1;rounded=0;sketch=0;" vertex="1" parent="1">
          <mxGeometry x="40" y="40" width="180" height="70" as="geometry" />
        </mxCell>
        <mxCell id="fjLqXx-3xqpTFQaSFBJo-372" value="" style="shape=partialRectangle;collapsible=0;dropTarget=0;pointerEvents=0;fillColor=none;top=0;left=0;bottom=1;right=0;points=[[0,0.5],[1,0.5]];portConstraint=eastwest;" vertex="1" parent="fjLqXx-3xqpTFQaSFBJo-371">
          <mxGeometry y="30" width="180" height="30" as="geometry" />
        </mxCell>
        <mxCell id="fjLqXx-3xqpTFQaSFBJo-373" value="PK" style="shape=partialRectangle;connectable=0;fillColor=none;top=0;left=0;bottom=0;right=0;fontStyle=1;overflow=hidden;" vertex="1" parent="fjLqXx-3xqpTFQaSFBJo-372">
          <mxGeometry width="30" height="30" as="geometry" />
        </mxCell>
        <mxCell id="fjLqXx-3xqpTFQaSFBJo-374" value="UniqueID" style="shape=partialRectangle;connectable=0;fillColor=none;top=0;left=0;bottom=0;right=0;align=left;spacingLeft=6;fontStyle=5;overflow=hidden;" vertex="1" parent="fjLqXx-3xqpTFQaSFBJo-372">
          <mxGeometry x="30" width="150" height="30" as="geometry" />
        </mxCell>
        <mxCell id="fjLqXx-3xqpTFQaSFBJo-14" value="商品" style="shape=table;startSize=30;container=1;collapsible=1;childLayout=tableLayout;fixedRows=1;rowLines=0;fontStyle=1;align=center;resizeLast=1;" vertex="1" parent="1">
          <mxGeometry x="840" y="400" width="200" height="310" as="geometry" />
        </mxCell>
        <mxCell id="fjLqXx-3xqpTFQaSFBJo-15" value="" style="shape=partialRectangle;collapsible=0;dropTarget=0;pointerEvents=0;fillColor=none;top=0;left=0;bottom=1;right=0;points=[[0,0.5],[1,0.5]];portConstraint=eastwest;" vertex="1" parent="fjLqXx-3xqpTFQaSFBJo-14">
          <mxGeometry y="30" width="200" height="30" as="geometry" />
        </mxCell>
        <mxCell id="fjLqXx-3xqpTFQaSFBJo-16" value="PK" style="shape=partialRectangle;connectable=0;fillColor=none;top=0;left=0;bottom=0;right=0;fontStyle=1;overflow=hidden;" vertex="1" parent="fjLqXx-3xqpTFQaSFBJo-15">
          <mxGeometry width="30" height="30" as="geometry" />
        </mxCell>
        <mxCell id="fjLqXx-3xqpTFQaSFBJo-17" value="商品id" style="shape=partialRectangle;connectable=0;fillColor=none;top=0;left=0;bottom=0;right=0;align=left;spacingLeft=6;fontStyle=5;overflow=hidden;" vertex="1" parent="fjLqXx-3xqpTFQaSFBJo-15">
          <mxGeometry x="30" width="170" height="30" as="geometry" />
        </mxCell>
        <mxCell id="fjLqXx-3xqpTFQaSFBJo-284" style="shape=partialRectangle;collapsible=0;dropTarget=0;pointerEvents=0;fillColor=none;top=0;left=0;bottom=1;right=0;points=[[0,0.5],[1,0.5]];portConstraint=eastwest;" vertex="1" parent="fjLqXx-3xqpTFQaSFBJo-14">
          <mxGeometry y="60" width="200" height="30" as="geometry" />
        </mxCell>
        <mxCell id="fjLqXx-3xqpTFQaSFBJo-285" value="FK" style="shape=partialRectangle;connectable=0;fillColor=none;top=0;left=0;bottom=0;right=0;fontStyle=1;overflow=hidden;" vertex="1" parent="fjLqXx-3xqpTFQaSFBJo-284">
          <mxGeometry width="30" height="30" as="geometry" />
        </mxCell>
        <mxCell id="fjLqXx-3xqpTFQaSFBJo-286" value="ジャンルid" style="shape=partialRectangle;connectable=0;fillColor=none;top=0;left=0;bottom=0;right=0;align=left;spacingLeft=6;fontStyle=5;overflow=hidden;" vertex="1" parent="fjLqXx-3xqpTFQaSFBJo-284">
          <mxGeometry x="30" width="170" height="30" as="geometry" />
        </mxCell>
        <mxCell id="fjLqXx-3xqpTFQaSFBJo-18" value="" style="shape=partialRectangle;collapsible=0;dropTarget=0;pointerEvents=0;fillColor=none;top=0;left=0;bottom=0;right=0;points=[[0,0.5],[1,0.5]];portConstraint=eastwest;" vertex="1" parent="fjLqXx-3xqpTFQaSFBJo-14">
          <mxGeometry y="90" width="200" height="30" as="geometry" />
        </mxCell>
        <mxCell id="fjLqXx-3xqpTFQaSFBJo-19" value="" style="shape=partialRectangle;connectable=0;fillColor=none;top=0;left=0;bottom=0;right=0;editable=1;overflow=hidden;" vertex="1" parent="fjLqXx-3xqpTFQaSFBJo-18">
          <mxGeometry width="30" height="30" as="geometry" />
        </mxCell>
        <mxCell id="fjLqXx-3xqpTFQaSFBJo-20" value="商品名" style="shape=partialRectangle;connectable=0;fillColor=none;top=0;left=0;bottom=0;right=0;align=left;spacingLeft=6;overflow=hidden;" vertex="1" parent="fjLqXx-3xqpTFQaSFBJo-18">
          <mxGeometry x="30" width="170" height="30" as="geometry" />
        </mxCell>
        <mxCell id="fjLqXx-3xqpTFQaSFBJo-21" value="" style="shape=partialRectangle;collapsible=0;dropTarget=0;pointerEvents=0;fillColor=none;top=0;left=0;bottom=0;right=0;points=[[0,0.5],[1,0.5]];portConstraint=eastwest;" vertex="1" parent="fjLqXx-3xqpTFQaSFBJo-14">
          <mxGeometry y="120" width="200" height="30" as="geometry" />
        </mxCell>
        <mxCell id="fjLqXx-3xqpTFQaSFBJo-22" value="" style="shape=partialRectangle;connectable=0;fillColor=none;top=0;left=0;bottom=0;right=0;editable=1;overflow=hidden;" vertex="1" parent="fjLqXx-3xqpTFQaSFBJo-21">
          <mxGeometry width="30" height="30" as="geometry" />
        </mxCell>
        <mxCell id="fjLqXx-3xqpTFQaSFBJo-23" value="商品説明文" style="shape=partialRectangle;connectable=0;fillColor=none;top=0;left=0;bottom=0;right=0;align=left;spacingLeft=6;overflow=hidden;" vertex="1" parent="fjLqXx-3xqpTFQaSFBJo-21">
          <mxGeometry x="30" width="170" height="30" as="geometry" />
        </mxCell>
        <mxCell id="fjLqXx-3xqpTFQaSFBJo-24" value="" style="shape=partialRectangle;collapsible=0;dropTarget=0;pointerEvents=0;fillColor=none;top=0;left=0;bottom=0;right=0;points=[[0,0.5],[1,0.5]];portConstraint=eastwest;" vertex="1" parent="fjLqXx-3xqpTFQaSFBJo-14">
          <mxGeometry y="150" width="200" height="30" as="geometry" />
        </mxCell>
        <mxCell id="fjLqXx-3xqpTFQaSFBJo-25" value="" style="shape=partialRectangle;connectable=0;fillColor=none;top=0;left=0;bottom=0;right=0;editable=1;overflow=hidden;" vertex="1" parent="fjLqXx-3xqpTFQaSFBJo-24">
          <mxGeometry width="30" height="30" as="geometry" />
        </mxCell>
        <mxCell id="fjLqXx-3xqpTFQaSFBJo-26" value="税抜価格" style="shape=partialRectangle;connectable=0;fillColor=none;top=0;left=0;bottom=0;right=0;align=left;spacingLeft=6;overflow=hidden;" vertex="1" parent="fjLqXx-3xqpTFQaSFBJo-24">
          <mxGeometry x="30" width="170" height="30" as="geometry" />
        </mxCell>
        <mxCell id="fjLqXx-3xqpTFQaSFBJo-180" style="shape=partialRectangle;collapsible=0;dropTarget=0;pointerEvents=0;fillColor=none;top=0;left=0;bottom=0;right=0;points=[[0,0.5],[1,0.5]];portConstraint=eastwest;" vertex="1" parent="fjLqXx-3xqpTFQaSFBJo-14">
          <mxGeometry y="180" width="200" height="30" as="geometry" />
        </mxCell>
        <mxCell id="fjLqXx-3xqpTFQaSFBJo-181" style="shape=partialRectangle;connectable=0;fillColor=none;top=0;left=0;bottom=0;right=0;editable=1;overflow=hidden;" vertex="1" parent="fjLqXx-3xqpTFQaSFBJo-180">
          <mxGeometry width="30" height="30" as="geometry" />
        </mxCell>
        <mxCell id="fjLqXx-3xqpTFQaSFBJo-182" value="商品画像" style="shape=partialRectangle;connectable=0;fillColor=none;top=0;left=0;bottom=0;right=0;align=left;spacingLeft=6;overflow=hidden;" vertex="1" parent="fjLqXx-3xqpTFQaSFBJo-180">
          <mxGeometry x="30" width="170" height="30" as="geometry" />
        </mxCell>
        <mxCell id="fjLqXx-3xqpTFQaSFBJo-360" style="shape=partialRectangle;collapsible=0;dropTarget=0;pointerEvents=0;fillColor=none;top=0;left=0;bottom=0;right=0;points=[[0,0.5],[1,0.5]];portConstraint=eastwest;" vertex="1" parent="fjLqXx-3xqpTFQaSFBJo-14">
          <mxGeometry y="210" width="200" height="30" as="geometry" />
        </mxCell>
        <mxCell id="fjLqXx-3xqpTFQaSFBJo-361" style="shape=partialRectangle;connectable=0;fillColor=none;top=0;left=0;bottom=0;right=0;editable=1;overflow=hidden;" vertex="1" parent="fjLqXx-3xqpTFQaSFBJo-360">
          <mxGeometry width="30" height="30" as="geometry" />
        </mxCell>
        <mxCell id="fjLqXx-3xqpTFQaSFBJo-362" value="販売ステータス" style="shape=partialRectangle;connectable=0;fillColor=none;top=0;left=0;bottom=0;right=0;align=left;spacingLeft=6;overflow=hidden;" vertex="1" parent="fjLqXx-3xqpTFQaSFBJo-360">
          <mxGeometry x="30" width="170" height="30" as="geometry" />
        </mxCell>
        <mxCell id="fjLqXx-3xqpTFQaSFBJo-335" style="shape=partialRectangle;collapsible=0;dropTarget=0;pointerEvents=0;fillColor=none;top=0;left=0;bottom=0;right=0;points=[[0,0.5],[1,0.5]];portConstraint=eastwest;" vertex="1" parent="fjLqXx-3xqpTFQaSFBJo-14">
          <mxGeometry y="240" width="200" height="30" as="geometry" />
        </mxCell>
        <mxCell id="fjLqXx-3xqpTFQaSFBJo-336" style="shape=partialRectangle;connectable=0;fillColor=none;top=0;left=0;bottom=0;right=0;editable=1;overflow=hidden;" vertex="1" parent="fjLqXx-3xqpTFQaSFBJo-335">
          <mxGeometry width="30" height="30" as="geometry" />
        </mxCell>
        <mxCell id="fjLqXx-3xqpTFQaSFBJo-337" value="登録日" style="shape=partialRectangle;connectable=0;fillColor=none;top=0;left=0;bottom=0;right=0;align=left;spacingLeft=6;overflow=hidden;" vertex="1" parent="fjLqXx-3xqpTFQaSFBJo-335">
          <mxGeometry x="30" width="170" height="30" as="geometry" />
        </mxCell>
        <mxCell id="fjLqXx-3xqpTFQaSFBJo-332" style="shape=partialRectangle;collapsible=0;dropTarget=0;pointerEvents=0;fillColor=none;top=0;left=0;bottom=0;right=0;points=[[0,0.5],[1,0.5]];portConstraint=eastwest;" vertex="1" parent="fjLqXx-3xqpTFQaSFBJo-14">
          <mxGeometry y="270" width="200" height="30" as="geometry" />
        </mxCell>
        <mxCell id="fjLqXx-3xqpTFQaSFBJo-333" style="shape=partialRectangle;connectable=0;fillColor=none;top=0;left=0;bottom=0;right=0;editable=1;overflow=hidden;" vertex="1" parent="fjLqXx-3xqpTFQaSFBJo-332">
          <mxGeometry width="30" height="30" as="geometry" />
        </mxCell>
        <mxCell id="fjLqXx-3xqpTFQaSFBJo-334" value="更新日" style="shape=partialRectangle;connectable=0;fillColor=none;top=0;left=0;bottom=0;right=0;align=left;spacingLeft=6;overflow=hidden;" vertex="1" parent="fjLqXx-3xqpTFQaSFBJo-332">
          <mxGeometry x="30" width="170" height="30" as="geometry" />
        </mxCell>
        <mxCell id="fjLqXx-3xqpTFQaSFBJo-252" value="ジャンル" style="shape=table;startSize=30;container=1;collapsible=1;childLayout=tableLayout;fixedRows=1;rowLines=0;fontStyle=1;align=center;resizeLast=1;" vertex="1" parent="1">
          <mxGeometry x="1170" y="400" width="230" height="190" as="geometry" />
        </mxCell>
        <mxCell id="fjLqXx-3xqpTFQaSFBJo-253" value="" style="shape=partialRectangle;collapsible=0;dropTarget=0;pointerEvents=0;fillColor=none;top=0;left=0;bottom=1;right=0;points=[[0,0.5],[1,0.5]];portConstraint=eastwest;" vertex="1" parent="fjLqXx-3xqpTFQaSFBJo-252">
          <mxGeometry y="30" width="230" height="30" as="geometry" />
        </mxCell>
        <mxCell id="fjLqXx-3xqpTFQaSFBJo-254" value="PK" style="shape=partialRectangle;connectable=0;fillColor=none;top=0;left=0;bottom=0;right=0;fontStyle=1;overflow=hidden;" vertex="1" parent="fjLqXx-3xqpTFQaSFBJo-253">
          <mxGeometry width="30" height="30" as="geometry" />
        </mxCell>
        <mxCell id="fjLqXx-3xqpTFQaSFBJo-255" value="ジャンルid" style="shape=partialRectangle;connectable=0;fillColor=none;top=0;left=0;bottom=0;right=0;align=left;spacingLeft=6;fontStyle=5;overflow=hidden;" vertex="1" parent="fjLqXx-3xqpTFQaSFBJo-253">
          <mxGeometry x="30" width="200" height="30" as="geometry" />
        </mxCell>
        <mxCell id="fjLqXx-3xqpTFQaSFBJo-256" value="" style="shape=partialRectangle;collapsible=0;dropTarget=0;pointerEvents=0;fillColor=none;top=0;left=0;bottom=0;right=0;points=[[0,0.5],[1,0.5]];portConstraint=eastwest;" vertex="1" parent="fjLqXx-3xqpTFQaSFBJo-252">
          <mxGeometry y="60" width="230" height="30" as="geometry" />
        </mxCell>
        <mxCell id="fjLqXx-3xqpTFQaSFBJo-257" value="" style="shape=partialRectangle;connectable=0;fillColor=none;top=0;left=0;bottom=0;right=0;editable=1;overflow=hidden;" vertex="1" parent="fjLqXx-3xqpTFQaSFBJo-256">
          <mxGeometry width="30" height="30" as="geometry" />
        </mxCell>
        <mxCell id="fjLqXx-3xqpTFQaSFBJo-258" value="ジャンル名" style="shape=partialRectangle;connectable=0;fillColor=none;top=0;left=0;bottom=0;right=0;align=left;spacingLeft=6;overflow=hidden;" vertex="1" parent="fjLqXx-3xqpTFQaSFBJo-256">
          <mxGeometry x="30" width="200" height="30" as="geometry" />
        </mxCell>
        <mxCell id="fjLqXx-3xqpTFQaSFBJo-259" value="" style="shape=partialRectangle;collapsible=0;dropTarget=0;pointerEvents=0;fillColor=none;top=0;left=0;bottom=0;right=0;points=[[0,0.5],[1,0.5]];portConstraint=eastwest;" vertex="1" parent="fjLqXx-3xqpTFQaSFBJo-252">
          <mxGeometry y="90" width="230" height="30" as="geometry" />
        </mxCell>
        <mxCell id="fjLqXx-3xqpTFQaSFBJo-260" value="" style="shape=partialRectangle;connectable=0;fillColor=none;top=0;left=0;bottom=0;right=0;editable=1;overflow=hidden;" vertex="1" parent="fjLqXx-3xqpTFQaSFBJo-259">
          <mxGeometry width="30" height="30" as="geometry" />
        </mxCell>
        <mxCell id="fjLqXx-3xqpTFQaSFBJo-261" value="ジャンルステータス（有効・無効）" style="shape=partialRectangle;connectable=0;fillColor=none;top=0;left=0;bottom=0;right=0;align=left;spacingLeft=6;overflow=hidden;" vertex="1" parent="fjLqXx-3xqpTFQaSFBJo-259">
          <mxGeometry x="30" width="200" height="30" as="geometry" />
        </mxCell>
        <mxCell id="fjLqXx-3xqpTFQaSFBJo-329" style="shape=partialRectangle;collapsible=0;dropTarget=0;pointerEvents=0;fillColor=none;top=0;left=0;bottom=0;right=0;points=[[0,0.5],[1,0.5]];portConstraint=eastwest;" vertex="1" parent="fjLqXx-3xqpTFQaSFBJo-252">
          <mxGeometry y="120" width="230" height="30" as="geometry" />
        </mxCell>
        <mxCell id="fjLqXx-3xqpTFQaSFBJo-330" style="shape=partialRectangle;connectable=0;fillColor=none;top=0;left=0;bottom=0;right=0;editable=1;overflow=hidden;" vertex="1" parent="fjLqXx-3xqpTFQaSFBJo-329">
          <mxGeometry width="30" height="30" as="geometry" />
        </mxCell>
        <mxCell id="fjLqXx-3xqpTFQaSFBJo-331" value="登録日" style="shape=partialRectangle;connectable=0;fillColor=none;top=0;left=0;bottom=0;right=0;align=left;spacingLeft=6;overflow=hidden;" vertex="1" parent="fjLqXx-3xqpTFQaSFBJo-329">
          <mxGeometry x="30" width="200" height="30" as="geometry" />
        </mxCell>
        <mxCell id="fjLqXx-3xqpTFQaSFBJo-326" style="shape=partialRectangle;collapsible=0;dropTarget=0;pointerEvents=0;fillColor=none;top=0;left=0;bottom=0;right=0;points=[[0,0.5],[1,0.5]];portConstraint=eastwest;" vertex="1" parent="fjLqXx-3xqpTFQaSFBJo-252">
          <mxGeometry y="150" width="230" height="30" as="geometry" />
        </mxCell>
        <mxCell id="fjLqXx-3xqpTFQaSFBJo-327" style="shape=partialRectangle;connectable=0;fillColor=none;top=0;left=0;bottom=0;right=0;editable=1;overflow=hidden;" vertex="1" parent="fjLqXx-3xqpTFQaSFBJo-326">
          <mxGeometry width="30" height="30" as="geometry" />
        </mxCell>
        <mxCell id="fjLqXx-3xqpTFQaSFBJo-328" value="更新日" style="shape=partialRectangle;connectable=0;fillColor=none;top=0;left=0;bottom=0;right=0;align=left;spacingLeft=6;overflow=hidden;" vertex="1" parent="fjLqXx-3xqpTFQaSFBJo-326">
          <mxGeometry x="30" width="200" height="30" as="geometry" />
        </mxCell>
        <mxCell id="fjLqXx-3xqpTFQaSFBJo-94" value="配送先" style="shape=table;startSize=30;container=1;collapsible=1;childLayout=tableLayout;fixedRows=1;rowLines=0;fontStyle=1;align=center;resizeLast=1;" vertex="1" parent="1">
          <mxGeometry x="280" y="480" width="180" height="250" as="geometry" />
        </mxCell>
        <mxCell id="fjLqXx-3xqpTFQaSFBJo-95" value="" style="shape=partialRectangle;collapsible=0;dropTarget=0;pointerEvents=0;fillColor=none;top=0;left=0;bottom=1;right=0;points=[[0,0.5],[1,0.5]];portConstraint=eastwest;" vertex="1" parent="fjLqXx-3xqpTFQaSFBJo-94">
          <mxGeometry y="30" width="180" height="30" as="geometry" />
        </mxCell>
        <mxCell id="fjLqXx-3xqpTFQaSFBJo-96" value="PK" style="shape=partialRectangle;connectable=0;fillColor=none;top=0;left=0;bottom=0;right=0;fontStyle=1;overflow=hidden;" vertex="1" parent="fjLqXx-3xqpTFQaSFBJo-95">
          <mxGeometry width="30" height="30" as="geometry" />
        </mxCell>
        <mxCell id="fjLqXx-3xqpTFQaSFBJo-97" value="配送先id" style="shape=partialRectangle;connectable=0;fillColor=none;top=0;left=0;bottom=0;right=0;align=left;spacingLeft=6;fontStyle=5;overflow=hidden;" vertex="1" parent="fjLqXx-3xqpTFQaSFBJo-95">
          <mxGeometry x="30" width="150" height="30" as="geometry" />
        </mxCell>
        <mxCell id="fjLqXx-3xqpTFQaSFBJo-386" style="shape=partialRectangle;collapsible=0;dropTarget=0;pointerEvents=0;fillColor=none;top=0;left=0;bottom=1;right=0;points=[[0,0.5],[1,0.5]];portConstraint=eastwest;" vertex="1" parent="fjLqXx-3xqpTFQaSFBJo-94">
          <mxGeometry y="60" width="180" height="30" as="geometry" />
        </mxCell>
        <mxCell id="fjLqXx-3xqpTFQaSFBJo-387" value="FK" style="shape=partialRectangle;connectable=0;fillColor=none;top=0;left=0;bottom=0;right=0;fontStyle=1;overflow=hidden;" vertex="1" parent="fjLqXx-3xqpTFQaSFBJo-386">
          <mxGeometry width="30" height="30" as="geometry" />
        </mxCell>
        <mxCell id="fjLqXx-3xqpTFQaSFBJo-388" value="会員id" style="shape=partialRectangle;connectable=0;fillColor=none;top=0;left=0;bottom=0;right=0;align=left;spacingLeft=6;fontStyle=5;overflow=hidden;" vertex="1" parent="fjLqXx-3xqpTFQaSFBJo-386">
          <mxGeometry x="30" width="150" height="30" as="geometry" />
        </mxCell>
        <mxCell id="fjLqXx-3xqpTFQaSFBJo-104" value="" style="shape=partialRectangle;collapsible=0;dropTarget=0;pointerEvents=0;fillColor=none;top=0;left=0;bottom=0;right=0;points=[[0,0.5],[1,0.5]];portConstraint=eastwest;" vertex="1" parent="fjLqXx-3xqpTFQaSFBJo-94">
          <mxGeometry y="90" width="180" height="30" as="geometry" />
        </mxCell>
        <mxCell id="fjLqXx-3xqpTFQaSFBJo-105" value="" style="shape=partialRectangle;connectable=0;fillColor=none;top=0;left=0;bottom=0;right=0;editable=1;overflow=hidden;" vertex="1" parent="fjLqXx-3xqpTFQaSFBJo-104">
          <mxGeometry width="30" height="30" as="geometry" />
        </mxCell>
        <mxCell id="fjLqXx-3xqpTFQaSFBJo-106" value="郵便番号" style="shape=partialRectangle;connectable=0;fillColor=none;top=0;left=0;bottom=0;right=0;align=left;spacingLeft=6;overflow=hidden;" vertex="1" parent="fjLqXx-3xqpTFQaSFBJo-104">
          <mxGeometry x="30" width="150" height="30" as="geometry" />
        </mxCell>
        <mxCell id="fjLqXx-3xqpTFQaSFBJo-192" style="shape=partialRectangle;collapsible=0;dropTarget=0;pointerEvents=0;fillColor=none;top=0;left=0;bottom=0;right=0;points=[[0,0.5],[1,0.5]];portConstraint=eastwest;" vertex="1" parent="fjLqXx-3xqpTFQaSFBJo-94">
          <mxGeometry y="120" width="180" height="30" as="geometry" />
        </mxCell>
        <mxCell id="fjLqXx-3xqpTFQaSFBJo-193" style="shape=partialRectangle;connectable=0;fillColor=none;top=0;left=0;bottom=0;right=0;editable=1;overflow=hidden;" vertex="1" parent="fjLqXx-3xqpTFQaSFBJo-192">
          <mxGeometry width="30" height="30" as="geometry" />
        </mxCell>
        <mxCell id="fjLqXx-3xqpTFQaSFBJo-194" value="住所" style="shape=partialRectangle;connectable=0;fillColor=none;top=0;left=0;bottom=0;right=0;align=left;spacingLeft=6;overflow=hidden;" vertex="1" parent="fjLqXx-3xqpTFQaSFBJo-192">
          <mxGeometry x="30" width="150" height="30" as="geometry" />
        </mxCell>
        <mxCell id="fjLqXx-3xqpTFQaSFBJo-189" style="shape=partialRectangle;collapsible=0;dropTarget=0;pointerEvents=0;fillColor=none;top=0;left=0;bottom=0;right=0;points=[[0,0.5],[1,0.5]];portConstraint=eastwest;" vertex="1" parent="fjLqXx-3xqpTFQaSFBJo-94">
          <mxGeometry y="150" width="180" height="30" as="geometry" />
        </mxCell>
        <mxCell id="fjLqXx-3xqpTFQaSFBJo-190" style="shape=partialRectangle;connectable=0;fillColor=none;top=0;left=0;bottom=0;right=0;editable=1;overflow=hidden;" vertex="1" parent="fjLqXx-3xqpTFQaSFBJo-189">
          <mxGeometry width="30" height="30" as="geometry" />
        </mxCell>
        <mxCell id="fjLqXx-3xqpTFQaSFBJo-191" value="宛名" style="shape=partialRectangle;connectable=0;fillColor=none;top=0;left=0;bottom=0;right=0;align=left;spacingLeft=6;overflow=hidden;" vertex="1" parent="fjLqXx-3xqpTFQaSFBJo-189">
          <mxGeometry x="30" width="150" height="30" as="geometry" />
        </mxCell>
        <mxCell id="fjLqXx-3xqpTFQaSFBJo-323" style="shape=partialRectangle;collapsible=0;dropTarget=0;pointerEvents=0;fillColor=none;top=0;left=0;bottom=0;right=0;points=[[0,0.5],[1,0.5]];portConstraint=eastwest;" vertex="1" parent="fjLqXx-3xqpTFQaSFBJo-94">
          <mxGeometry y="180" width="180" height="30" as="geometry" />
        </mxCell>
        <mxCell id="fjLqXx-3xqpTFQaSFBJo-324" style="shape=partialRectangle;connectable=0;fillColor=none;top=0;left=0;bottom=0;right=0;editable=1;overflow=hidden;" vertex="1" parent="fjLqXx-3xqpTFQaSFBJo-323">
          <mxGeometry width="30" height="30" as="geometry" />
        </mxCell>
        <mxCell id="fjLqXx-3xqpTFQaSFBJo-325" value="登録日" style="shape=partialRectangle;connectable=0;fillColor=none;top=0;left=0;bottom=0;right=0;align=left;spacingLeft=6;overflow=hidden;" vertex="1" parent="fjLqXx-3xqpTFQaSFBJo-323">
          <mxGeometry x="30" width="150" height="30" as="geometry" />
        </mxCell>
        <mxCell id="fjLqXx-3xqpTFQaSFBJo-320" style="shape=partialRectangle;collapsible=0;dropTarget=0;pointerEvents=0;fillColor=none;top=0;left=0;bottom=0;right=0;points=[[0,0.5],[1,0.5]];portConstraint=eastwest;" vertex="1" parent="fjLqXx-3xqpTFQaSFBJo-94">
          <mxGeometry y="210" width="180" height="30" as="geometry" />
        </mxCell>
        <mxCell id="fjLqXx-3xqpTFQaSFBJo-321" style="shape=partialRectangle;connectable=0;fillColor=none;top=0;left=0;bottom=0;right=0;editable=1;overflow=hidden;" vertex="1" parent="fjLqXx-3xqpTFQaSFBJo-320">
          <mxGeometry width="30" height="30" as="geometry" />
        </mxCell>
        <mxCell id="fjLqXx-3xqpTFQaSFBJo-322" value="更新日" style="shape=partialRectangle;connectable=0;fillColor=none;top=0;left=0;bottom=0;right=0;align=left;spacingLeft=6;overflow=hidden;" vertex="1" parent="fjLqXx-3xqpTFQaSFBJo-320">
          <mxGeometry x="30" width="150" height="30" as="geometry" />
        </mxCell>
        <mxCell id="fjLqXx-3xqpTFQaSFBJo-405" style="edgeStyle=orthogonalEdgeStyle;curved=0;rounded=1;sketch=0;orthogonalLoop=1;jettySize=auto;html=1;exitX=0;exitY=0.5;exitDx=0;exitDy=0;entryX=0;entryY=0.5;entryDx=0;entryDy=0;endArrow=ERmany;endFill=0;" edge="1" parent="1" source="fjLqXx-3xqpTFQaSFBJo-11" target="fjLqXx-3xqpTFQaSFBJo-104">
          <mxGeometry relative="1" as="geometry" />
        </mxCell>
        <mxCell id="fjLqXx-3xqpTFQaSFBJo-428" style="edgeStyle=orthogonalEdgeStyle;curved=0;rounded=1;sketch=0;orthogonalLoop=1;jettySize=auto;html=1;exitX=0;exitY=0.5;exitDx=0;exitDy=0;entryX=1;entryY=0.5;entryDx=0;entryDy=0;endArrow=ERmany;endFill=0;" edge="1" parent="1" source="fjLqXx-3xqpTFQaSFBJo-24" target="fjLqXx-3xqpTFQaSFBJo-416">
          <mxGeometry relative="1" as="geometry" />
        </mxCell>
        <mxCell id="fjLqXx-3xqpTFQaSFBJo-406" value="カート" style="shape=table;startSize=30;container=1;collapsible=1;childLayout=tableLayout;fixedRows=1;rowLines=0;fontStyle=1;align=center;resizeLast=1;rounded=0;sketch=0;" vertex="1" parent="1">
          <mxGeometry x="480" y="510" width="180" height="220" as="geometry" />
        </mxCell>
        <mxCell id="fjLqXx-3xqpTFQaSFBJo-407" value="" style="shape=partialRectangle;collapsible=0;dropTarget=0;pointerEvents=0;fillColor=none;top=0;left=0;bottom=1;right=0;points=[[0,0.5],[1,0.5]];portConstraint=eastwest;" vertex="1" parent="fjLqXx-3xqpTFQaSFBJo-406">
          <mxGeometry y="30" width="180" height="30" as="geometry" />
        </mxCell>
        <mxCell id="fjLqXx-3xqpTFQaSFBJo-408" value="PK" style="shape=partialRectangle;connectable=0;fillColor=none;top=0;left=0;bottom=0;right=0;fontStyle=1;overflow=hidden;" vertex="1" parent="fjLqXx-3xqpTFQaSFBJo-407">
          <mxGeometry width="30" height="30" as="geometry" />
        </mxCell>
        <mxCell id="fjLqXx-3xqpTFQaSFBJo-409" value="カートid" style="shape=partialRectangle;connectable=0;fillColor=none;top=0;left=0;bottom=0;right=0;align=left;spacingLeft=6;fontStyle=5;overflow=hidden;" vertex="1" parent="fjLqXx-3xqpTFQaSFBJo-407">
          <mxGeometry x="30" width="150" height="30" as="geometry" />
        </mxCell>
        <mxCell id="fjLqXx-3xqpTFQaSFBJo-422" style="shape=partialRectangle;collapsible=0;dropTarget=0;pointerEvents=0;fillColor=none;top=0;left=0;bottom=1;right=0;points=[[0,0.5],[1,0.5]];portConstraint=eastwest;" vertex="1" parent="fjLqXx-3xqpTFQaSFBJo-406">
          <mxGeometry y="60" width="180" height="30" as="geometry" />
        </mxCell>
        <mxCell id="fjLqXx-3xqpTFQaSFBJo-423" value="FK" style="shape=partialRectangle;connectable=0;fillColor=none;top=0;left=0;bottom=0;right=0;fontStyle=1;overflow=hidden;" vertex="1" parent="fjLqXx-3xqpTFQaSFBJo-422">
          <mxGeometry width="30" height="30" as="geometry" />
        </mxCell>
        <mxCell id="fjLqXx-3xqpTFQaSFBJo-424" value="商品id" style="shape=partialRectangle;connectable=0;fillColor=none;top=0;left=0;bottom=0;right=0;align=left;spacingLeft=6;fontStyle=5;overflow=hidden;" vertex="1" parent="fjLqXx-3xqpTFQaSFBJo-422">
          <mxGeometry x="30" width="150" height="30" as="geometry" />
        </mxCell>
        <mxCell id="fjLqXx-3xqpTFQaSFBJo-419" style="shape=partialRectangle;collapsible=0;dropTarget=0;pointerEvents=0;fillColor=none;top=0;left=0;bottom=1;right=0;points=[[0,0.5],[1,0.5]];portConstraint=eastwest;" vertex="1" parent="fjLqXx-3xqpTFQaSFBJo-406">
          <mxGeometry y="90" width="180" height="30" as="geometry" />
        </mxCell>
        <mxCell id="fjLqXx-3xqpTFQaSFBJo-420" value="FK" style="shape=partialRectangle;connectable=0;fillColor=none;top=0;left=0;bottom=0;right=0;fontStyle=1;overflow=hidden;" vertex="1" parent="fjLqXx-3xqpTFQaSFBJo-419">
          <mxGeometry width="30" height="30" as="geometry" />
        </mxCell>
        <mxCell id="fjLqXx-3xqpTFQaSFBJo-421" value="会員id" style="shape=partialRectangle;connectable=0;fillColor=none;top=0;left=0;bottom=0;right=0;align=left;spacingLeft=6;fontStyle=5;overflow=hidden;" vertex="1" parent="fjLqXx-3xqpTFQaSFBJo-419">
          <mxGeometry x="30" width="150" height="30" as="geometry" />
        </mxCell>
        <mxCell id="fjLqXx-3xqpTFQaSFBJo-416" value="" style="shape=partialRectangle;collapsible=0;dropTarget=0;pointerEvents=0;fillColor=none;top=0;left=0;bottom=0;right=0;points=[[0,0.5],[1,0.5]];portConstraint=eastwest;" vertex="1" parent="fjLqXx-3xqpTFQaSFBJo-406">
          <mxGeometry y="120" width="180" height="30" as="geometry" />
        </mxCell>
        <mxCell id="fjLqXx-3xqpTFQaSFBJo-417" value="" style="shape=partialRectangle;connectable=0;fillColor=none;top=0;left=0;bottom=0;right=0;editable=1;overflow=hidden;" vertex="1" parent="fjLqXx-3xqpTFQaSFBJo-416">
          <mxGeometry width="30" height="30" as="geometry" />
        </mxCell>
        <mxCell id="fjLqXx-3xqpTFQaSFBJo-418" value="数量" style="shape=partialRectangle;connectable=0;fillColor=none;top=0;left=0;bottom=0;right=0;align=left;spacingLeft=6;overflow=hidden;" vertex="1" parent="fjLqXx-3xqpTFQaSFBJo-416">
          <mxGeometry x="30" width="150" height="30" as="geometry" />
        </mxCell>
        <mxCell id="fjLqXx-3xqpTFQaSFBJo-432" style="shape=partialRectangle;collapsible=0;dropTarget=0;pointerEvents=0;fillColor=none;top=0;left=0;bottom=0;right=0;points=[[0,0.5],[1,0.5]];portConstraint=eastwest;" vertex="1" parent="fjLqXx-3xqpTFQaSFBJo-406">
          <mxGeometry y="150" width="180" height="30" as="geometry" />
        </mxCell>
        <mxCell id="fjLqXx-3xqpTFQaSFBJo-433" style="shape=partialRectangle;connectable=0;fillColor=none;top=0;left=0;bottom=0;right=0;editable=1;overflow=hidden;" vertex="1" parent="fjLqXx-3xqpTFQaSFBJo-432">
          <mxGeometry width="30" height="30" as="geometry" />
        </mxCell>
        <mxCell id="fjLqXx-3xqpTFQaSFBJo-434" value="登録日" style="shape=partialRectangle;connectable=0;fillColor=none;top=0;left=0;bottom=0;right=0;align=left;spacingLeft=6;overflow=hidden;" vertex="1" parent="fjLqXx-3xqpTFQaSFBJo-432">
          <mxGeometry x="30" width="150" height="30" as="geometry" />
        </mxCell>
        <mxCell id="fjLqXx-3xqpTFQaSFBJo-429" style="shape=partialRectangle;collapsible=0;dropTarget=0;pointerEvents=0;fillColor=none;top=0;left=0;bottom=0;right=0;points=[[0,0.5],[1,0.5]];portConstraint=eastwest;" vertex="1" parent="fjLqXx-3xqpTFQaSFBJo-406">
          <mxGeometry y="180" width="180" height="30" as="geometry" />
        </mxCell>
        <mxCell id="fjLqXx-3xqpTFQaSFBJo-430" style="shape=partialRectangle;connectable=0;fillColor=none;top=0;left=0;bottom=0;right=0;editable=1;overflow=hidden;" vertex="1" parent="fjLqXx-3xqpTFQaSFBJo-429">
          <mxGeometry width="30" height="30" as="geometry" />
        </mxCell>
        <mxCell id="fjLqXx-3xqpTFQaSFBJo-431" value="更新日" style="shape=partialRectangle;connectable=0;fillColor=none;top=0;left=0;bottom=0;right=0;align=left;spacingLeft=6;overflow=hidden;" vertex="1" parent="fjLqXx-3xqpTFQaSFBJo-429">
          <mxGeometry x="30" width="150" height="30" as="geometry" />
        </mxCell>
        <mxCell id="fjLqXx-3xqpTFQaSFBJo-435" style="edgeStyle=orthogonalEdgeStyle;curved=0;rounded=1;sketch=0;orthogonalLoop=1;jettySize=auto;html=1;exitX=1;exitY=0.5;exitDx=0;exitDy=0;entryX=0.126;entryY=-0.008;entryDx=0;entryDy=0;entryPerimeter=0;endArrow=ERmany;endFill=0;" edge="1" parent="1" source="fjLqXx-3xqpTFQaSFBJo-150" target="fjLqXx-3xqpTFQaSFBJo-406">
          <mxGeometry relative="1" as="geometry" />
        </mxCell>
      </root>
    </mxGraphModel>
  </diagram>
</mxfile>
